<?xml version="1.0" encoding="UTF-8"?>
<svg version="1.1" xmlns="http://www.w3.org/2000/svg" width="4819" height="1248">
<path d="M0 0 C2.32745559 0.00564272 4.65490389 0.00846159 6.98236465 0.0110817 C29.0732562 0.04723902 50.92010048 0.42548036 72.8550148 3.31805801 C74.28346092 3.49758292 75.71201326 3.67626421 77.14065933 3.85419083 C118.98164958 9.11442772 159.79569139 18.17090056 199.8550148 31.31805801 C200.85258804 31.64241837 201.85016129 31.96677872 202.87796402 32.30096817 C269.61957893 54.15581952 331.65298282 89.17006776 386.8550148 132.31805801 C388.02907422 133.22224913 389.20356663 134.12587827 390.3784523 135.02899551 C396.92339087 140.08390671 403.16946408 145.30533641 409.2300148 150.94305801 C411.757758 153.23006377 414.36288084 155.33763133 417.0425148 157.44305801 C422.7735379 162.05422602 427.88737116 167.21046605 433.02176285 172.47089005 C436.88309801 176.41440197 440.83867765 180.13530924 445.05618668 183.69745255 C447.57546678 185.96712971 449.69603521 188.51065959 451.88235855 191.09540176 C454.22089541 193.73030765 456.71111744 196.167714 459.2300148 198.63055801 C463.70479544 203.026139 467.70748282 207.66986838 471.6128273 212.57587051 C473.90971704 215.38495866 476.32108414 218.03684749 478.7925148 220.69305801 C483.70335862 226.0421002 488.11967958 231.69784307 492.47610855 237.49774551 C493.9400396 239.43030038 495.42623305 241.34403976 496.9175148 243.25555801 C505.00922241 253.65619783 512.54560733 264.35603282 519.8550148 275.31805801 C520.44540543 276.19703751 521.03579605 277.076017 521.6440773 277.98163223 C572.11201937 353.26745326 605.06491412 438.93537028 614.90774918 744.37771988 C598.23017759 828.63290486 564.5284528 908.55805863 515.8550148 979.31805801 C515.0194606 980.53622208 515.0194606 980.53622208 514.16702652 981.77899551 C507.83256971 990.98148368 501.20384734 999.88637361 494.21829605 1008.60321426 C492.8209304 1010.36093209 491.44489427 1012.13356447 490.0737648 1013.91180801 C485.03817223 1020.42939181 479.84901056 1026.6522715 474.23392105 1032.68915176 C471.92653057 1035.23902663 469.79527676 1037.86759003 467.6675148 1040.56805801 C463.22704008 1046.08501146 458.28472566 1051.00178397 453.23880386 1055.96356583 C450.00027645 1059.15285056 446.85339486 1062.34224599 443.9175148 1065.81805801 C441.23782569 1068.98496333 438.30798526 1071.60372199 435.1440773 1074.27899551 C432.31793423 1076.79648133 429.68833623 1079.48988374 427.0425148 1082.19305801 C422.46155465 1086.84899769 417.68288512 1091.0451245 412.56204605 1095.11102676 C409.76222327 1097.39371056 407.12427511 1099.79498004 404.4800148 1102.25555801 C399.06869719 1107.22874337 393.36328056 1111.66763957 387.49466324 1116.07684708 C384.84139014 1118.08537007 382.22822855 1120.14551212 379.6050148 1122.19305801 C367.12862226 1131.83252022 354.06682662 1140.72230465 340.8550148 1149.31805801 C340.15215347 1149.77648087 339.44929214 1150.23490372 338.72513199 1150.70721817 C261.36716896 1200.94738976 173.56904519 1231.87040075 5.71023178 1248.63611603 C3.38237311 1248.63047282 1.05452172 1248.62765426 -1.27334213 1248.62503433 C-23.36766434 1248.58888055 -45.20447629 1248.18464336 -67.1449852 1245.31805801 C-68.63298642 1245.13303043 -70.12111053 1244.94898912 -71.60934067 1244.76581192 C-111.3092756 1239.84247058 -151.16536989 1232.11508227 -189.1449852 1219.31805801 C-190.2493895 1218.94632462 -191.35379379 1218.57459122 -192.49166489 1218.19159317 C-253.25574965 1197.53948588 -311.62046225 1168.78742215 -363.1449852 1130.31805801 C-364.5341811 1129.28924065 -365.9235036 1128.26059421 -367.31295395 1127.23212051 C-378.77359609 1118.71931721 -390.20299159 1110.18180336 -400.71139145 1100.50165176 C-403.32665793 1098.15504829 -406.0297281 1095.95452976 -408.7699852 1093.75555801 C-412.80908292 1090.49146924 -416.45819585 1087.06324943 -420.06295395 1083.33368301 C-422.40719205 1081.06421424 -424.89305986 1079.08477724 -427.4574852 1077.06805801 C-432.73999561 1072.83325771 -437.16242921 1068.14686234 -441.6449852 1063.10712051 C-443.67048659 1060.84742053 -445.72667254 1058.68797084 -447.8949852 1056.56805801 C-450.80336075 1053.7076981 -453.4763206 1050.69752721 -456.1371727 1047.60712051 C-458.08823493 1045.38275774 -460.0859345 1043.20712159 -462.09859848 1041.038517 C-466.82387225 1035.94233115 -471.36142848 1030.75187632 -475.71920395 1025.33368301 C-477.49858385 1023.12163586 -479.29129073 1020.92598962 -481.10201645 1018.73993301 C-506.02816702 988.55227538 -527.5197717 955.7190849 -546.1449852 921.31805801 C-546.66302719 920.36318497 -547.18106918 919.40831192 -547.71480942 918.42450333 C-556.19557011 902.7052649 -563.84714857 886.61560773 -571.1449852 870.31805801 C-571.64159653 869.21091446 -572.13820786 868.1037709 -572.64986801 866.96307755 C-576.6304264 857.89883657 -579.95326133 848.6801002 -583.1449852 839.31805801 C-583.63956008 837.87793529 -584.13418884 836.43783107 -584.62887192 834.99774551 C-607.72043907 767.53684152 -620.63898854 698.62151063 -620.46304321 627.17327499 C-620.45740001 624.84541632 -620.45458145 622.51756494 -620.45196152 620.18970108 C-620.41580774 598.09537887 -620.01157054 576.25856693 -617.1449852 554.31805801 C-616.95995762 552.8300568 -616.7759163 551.34193268 -616.59273911 549.85370255 C-604.71178749 454.04453847 -572.17176605 360.68764865 -518.1449852 280.31805801 C-517.70622055 279.66466446 -517.2674559 279.0112709 -516.81539536 278.33807755 C-513.64087814 273.63015618 -510.41004676 268.9635684 -507.1449852 264.31805801 C-506.38314926 263.23307022 -506.38314926 263.23307022 -505.6059227 262.12616348 C-498.30833697 251.77518521 -490.66822807 241.79842033 -482.58053207 232.05340958 C-480.58173557 229.63717734 -478.61615832 227.1943452 -476.6449852 224.75555801 C-472.99730503 220.30700342 -469.27436041 215.92657941 -465.5199852 211.56805801 C-464.73011215 210.64657974 -464.73011215 210.64657974 -463.92428207 209.70648575 C-460.72491279 206.01356495 -457.38428749 202.5390619 -453.90353012 199.11175919 C-452.14058276 197.31356756 -450.49758368 195.45316106 -448.85982895 193.54071426 C-444.39131081 188.36670623 -439.54974467 183.57716819 -434.7074852 178.75555801 C-433.35300278 177.39527481 -433.35300278 177.39527481 -431.97115707 176.00751114 C-427.40361604 171.44658494 -422.78474655 167.0166089 -417.88546371 162.81341934 C-415.48097012 160.74755831 -413.16085171 158.59399069 -410.8324852 156.44305801 C-406.31722915 152.32584107 -401.68270735 148.41044216 -396.9262352 144.57587051 C-394.14998461 142.32211653 -391.43050756 140.0106866 -388.7074852 137.69305801 C-354.40573807 109.10089202 -315.9755831 85.34349055 -276.1449852 65.31805801 C-275.06716782 64.77181778 -273.98935043 64.22557755 -272.87887192 63.66278458 C-233.8905304 43.99753851 -192.58609381 28.64890963 -150.1449852 18.31805801 C-148.39484116 17.8878334 -148.39484116 17.8878334 -146.60934067 17.44891739 C-98.44956486 5.73903149 -49.55371728 -0.12203274 0 0 Z " fill="#1C66C8" transform="translate(620.1449851989746,-0.3180580139160156)"/>
<path d="M0 0 C1.55378909 0.36563612 3.10783114 0.73019876 4.66210938 1.09375 C7.88608385 1.84872354 11.10892874 2.60827112 14.33105469 3.37109375 C21.03347058 4.9541766 27.74865332 6.48077532 34.46395874 8.00805664 C38.10032398 8.83584543 41.73562534 9.66828324 45.37109375 10.5 C50.48452776 11.6691926 55.59849269 12.8360211 60.71311951 13.99998474 C64.37141957 14.83256338 68.02950556 15.66607973 71.6875 16.5 C72.40998932 16.66466766 73.13247864 16.82933533 73.87686157 16.99899292 C85.40964821 19.62955429 96.92336165 22.33601166 108.43310547 25.06536865 C119.50065497 27.68620988 130.59474306 30.16075833 141.71176147 32.56228638 C151.38064262 34.65261297 161.00617393 36.88217281 170.61547852 39.23095703 C179.09049292 41.28727927 187.60159203 43.15791537 196.125 45 C206.65876842 47.27656508 217.15279923 49.6733403 227.62207031 52.23266602 C236.69045555 54.43297627 245.80241654 56.41172469 254.92321777 58.37936401 C264.6088526 60.47235807 274.25052858 62.70077064 283.875 65.0625 C295.9177599 68.0169154 308.00670067 70.68619063 320.140625 73.23828125 C322.13543728 73.65875639 324.13023031 74.07932285 326.125 74.5 C327.48915039 74.78496338 327.48915039 74.78496338 328.88085938 75.07568359 C335.01100915 76.38600915 335.01100915 76.38600915 336.125 77.5 C336.62266986 87.97043192 335.90598995 98.41468017 335.08346534 108.84794116 C334.72374266 113.43415439 334.38877611 118.02219991 334.05230713 122.61016846 C333.97795327 123.62092308 333.9035994 124.6316777 333.82699239 125.67306125 C332.8895425 138.54374529 332.08485449 151.42305454 331.27852759 164.30248663 C331.14696484 166.40390681 331.01515869 168.5053116 330.88330483 170.60671353 C330.37429575 178.72229985 329.867748 186.83803831 329.36236816 194.95385136 C328.87298047 202.81194169 328.38161142 210.6699078 327.89022698 218.52787347 C327.01298764 232.55738501 326.13756922 246.58700956 325.26318359 260.61669922 C324.41900394 274.16171656 323.5733202 287.70663896 322.72607422 301.25146484 C321.79628851 316.11587954 320.86728816 330.98034292 319.93967068 345.8448931 C319.84055984 347.43308044 319.74144888 349.02126778 319.6423378 350.60945511 C319.59360949 351.39031514 319.54488118 352.17117517 319.49467625 352.97569763 C319.15438453 358.42806233 318.81356995 363.8803942 318.47256088 369.33271408 C318.05701197 375.97722295 317.64239566 382.62178929 317.22890554 389.26642661 C317.01874461 392.6433294 316.80808172 396.02019869 316.59658813 399.39701843 C316.44032606 401.89277703 316.2847705 404.38857998 316.12999368 406.88443112 C315.98483618 409.21630418 315.83734057 411.54803313 315.68724608 413.87959361 C315.35988518 419.07507779 315.08440893 424.25911923 314.95947647 429.46370316 C314.93232783 430.38354669 314.9051792 431.30339023 314.87720788 432.25110781 C314.83208356 433.92884518 314.80446332 435.60720254 314.79941165 437.28553903 C314.63845144 442.86650269 313.31086063 445.45908588 309.5 449.5625 C307.39939533 451.29129221 305.31499203 452.90039176 303.125 454.5 C301.94210646 455.4478356 300.76250321 456.39978963 299.5859375 457.35546875 C282.71806819 470.72013212 263.8146921 477.79018815 242.125 475.5 C225.33713105 472.62784955 210.64004884 462.63219122 198.125 451.5 C196.80628906 450.59024414 196.80628906 450.59024414 195.4609375 449.66210938 C191.70211096 444.57386508 192.52902826 439.45006308 192.69140625 433.29296875 C192.71215486 431.85981805 192.73134379 430.42664412 192.74916077 428.99345398 C192.8277764 423.82755453 192.97437535 418.6642291 193.125 413.5 C193.15376976 412.48156258 193.18253952 411.46312515 193.21218109 410.41382599 C193.6932726 393.49518112 194.29479164 376.5814056 194.92095947 359.66760254 C195.11098472 354.49193426 195.29468733 349.31604957 195.4782629 344.14014912 C195.65719852 339.10664815 195.83883447 334.07324764 196.02139473 329.03987694 C196.10764235 326.65950665 196.19335312 324.27911684 196.27848625 321.89870644 C197.08054913 299.59402149 197.08054913 299.59402149 197.9309082 289.20423889 C198.23199339 285.0092843 198.23501575 280.82831655 198.1875 276.625 C198.18073242 275.43197266 198.18073242 275.43197266 198.17382812 274.21484375 C198.16235232 272.30986087 198.14443794 270.40491828 198.125 268.5 C197.68671875 269.56347656 197.2484375 270.62695312 196.796875 271.72265625 C186.75610292 295.10213551 161.71374981 309.36809682 140.42871094 321.21679688 C138.99342361 322.01627443 137.56119727 322.82130396 136.13378906 323.63476562 C105.05254261 341.33538177 70.48780931 353.24268717 36.625 364.3125 C35.1819046 364.78488602 35.1819046 364.78488602 33.70965576 365.26681519 C21.82627065 369.14453668 9.89838913 372.78743407 -2.13842773 376.15942383 C-6.21653686 377.30338332 -10.27278169 378.51185181 -14.32679749 379.73814392 C-28.42051529 383.99060006 -42.84574585 386.95980934 -57.22612 390.05883789 C-61.85124743 391.05621239 -66.46876007 392.08158849 -71.08203125 393.1328125 C-94.90955198 398.50563396 -119.08917143 402.22197851 -143.3125 405.3125 C-144.62105957 405.48011841 -144.62105957 405.48011841 -145.95605469 405.65112305 C-162.94856565 407.69760673 -179.90931481 407.69964882 -197 407.6875 C-198.30100647 407.68756042 -199.60201294 407.68762085 -200.94244385 407.68768311 C-218.18241634 407.67625834 -235.20425866 407.32578076 -252.37695312 405.78222656 C-258.79395428 405.26449531 -265.22319548 404.95988329 -271.6519165 404.62600708 C-273.97021019 404.50159863 -276.2875624 404.36603006 -278.60498047 404.22631836 C-285.65638426 403.8051801 -292.67773293 403.46141298 -299.7421875 403.38671875 C-318.63743461 402.98891078 -318.63743461 402.98891078 -324.63208008 397.06835938 C-326.9483132 394.34418135 -328.89820139 391.48128398 -330.875 388.5 C-332.10563494 387.19020141 -333.37060305 385.91053604 -334.6875 384.6875 C-337.5748823 381.84858694 -340.22588535 378.8567632 -342.8671875 375.7890625 C-344.81824973 373.56469973 -346.8159493 371.38906357 -348.82861328 369.22045898 C-353.55388705 364.12427313 -358.09144328 358.9338183 -362.44921875 353.515625 C-364.22859865 351.30357784 -366.02130553 349.10793161 -367.83203125 346.921875 C-392.75818182 316.73421736 -414.2497865 283.90102688 -432.875 249.5 C-433.39304199 248.54512695 -433.91108398 247.59025391 -434.44482422 246.60644531 C-444.25490213 228.42329416 -453.03380114 209.73497634 -461.2578125 190.78515625 C-461.75941895 189.63023682 -462.26102539 188.47531738 -462.77783203 187.28540039 C-463.875 184.5 -463.875 184.5 -463.875 182.5 C-460.43400317 183.07498219 -458.92032487 184.15200424 -456.58203125 186.703125 C-453.15138102 190.28055564 -449.53959207 193.30157919 -445.5625 196.25 C-444.86938721 196.76385254 -444.17627441 197.27770508 -443.4621582 197.80712891 C-415.08709671 218.51110862 -382.63394268 232.98948233 -349.04150391 242.86181641 C-346.94330023 243.47988091 -344.85277619 244.11996838 -342.76171875 244.76171875 C-313.17032993 253.62070814 -281.65553618 258.32089302 -250.875 260.5 C-249.73248779 260.58685059 -248.58997559 260.67370117 -247.4128418 260.76318359 C-231.57287729 261.86334497 -215.68253308 261.74298019 -199.8125 261.75 C-199.05131489 261.75073643 -198.29012978 261.75147285 -197.50587845 261.7522316 C-178.24321851 261.76740576 -159.03145604 261.64127392 -139.8125 260.1875 C-138.59939651 260.09921936 -138.59939651 260.09921936 -137.36178589 260.00915527 C-129.33070181 259.40209365 -121.6424529 258.41561878 -113.84985352 256.27856445 C-108.0967751 254.77289625 -102.22024554 253.8283176 -96.375 252.75 C-19.52060161 238.23285226 53.28241485 206.95845614 121.34667969 169.03466797 C127.03786851 165.8910113 132.77254515 162.82692575 138.5 159.75 C139.6559668 159.12826904 140.81193359 158.50653809 142.00292969 157.8659668 C144.70997104 156.41005651 147.41732633 154.95473386 150.125 153.5 C145.98935883 152.0323764 141.97540365 151.00279152 137.65625 150.23828125 C136.38313965 150.01019775 135.1100293 149.78211426 133.79833984 149.54711914 C133.12099792 149.42789093 132.44365601 149.30866272 131.74578857 149.18582153 C128.81201747 148.66939102 125.88001773 148.14320245 122.94784546 147.61778259 C121.39050291 147.33883887 119.83306703 147.06041574 118.27554321 146.78248596 C110.46628513 145.38778605 102.66600847 143.94570448 94.86593628 142.50067139 C84.55217029 140.59056198 74.23696862 138.69000433 63.91015625 136.8515625 C63.1459436 136.71548584 62.38173096 136.57940918 61.59436035 136.43920898 C60.03599356 136.1618068 58.47762358 135.88442247 56.91925049 135.60705566 C37.92321277 132.22532507 18.96273545 128.66531285 0.00952148 125.05151367 C-2.12906237 124.64498462 -4.26765278 124.23849 -6.40625 123.83203125 C-7.44373886 123.63355087 -8.48122772 123.4350705 -9.55015564 123.23057556 C-14.79103838 122.23643682 -20.03391431 121.2972874 -25.30078125 120.45068359 C-26.33779175 120.2813884 -27.37480225 120.1120932 -28.4432373 119.93766785 C-30.39104241 119.62320754 -32.34060948 119.31938127 -34.29211426 119.02876282 C-45.9606722 117.13716871 -52.81297232 111.96545495 -59.875 102.5 C-71.22848095 85.93293852 -76.87400551 67.5736354 -73.875 47.5 C-70.63411406 30.89255858 -62.97739113 17.4797914 -48.78442383 7.78149414 C-31.92783816 -3.1433446 -19.24533439 -4.62743094 0 0 Z " fill="#F6931D" transform="translate(506.875,671.5)"/>
<path d="M0 0 C45.87 0 91.74 0 139 0 C141.03166554 6.09499662 142.88036015 12.06556587 144.44165039 18.27416992 C144.6671759 19.15949119 144.89270142 20.04481245 145.12506104 20.95696163 C145.86904618 23.8806811 146.60833742 26.80556616 147.34765625 29.73046875 C147.87626857 31.81126735 148.40520132 33.89198457 148.93443298 35.97262573 C150.06025386 40.40105678 151.18411077 44.8299796 152.30639648 49.25930786 C154.08024093 56.25963946 155.85888806 63.25874473 157.63867188 70.25756836 C157.93488623 71.4224368 158.23110058 72.58730524 158.53629112 73.78747272 C159.13359721 76.13634144 159.73091964 78.48520601 160.32825851 80.83406639 C161.22309206 84.35327644 162.11752685 87.87258763 163.01187134 91.391922 C167.47671785 108.95917733 171.96661234 126.51981574 176.48751831 144.07272339 C177.00172654 146.06920352 177.51577459 148.06572483 178.02978516 150.06225586 C179.6456103 156.33811633 181.26220315 162.61377869 182.87948799 168.88926315 C186.11092636 181.42814495 189.33872206 193.96796388 192.56640625 206.5078125 C193.7337208 211.04288818 194.90103933 215.57796284 196.06835938 220.11303711 C196.3589303 221.24192195 196.64950123 222.37080679 196.94887733 223.53390026 C198.92594287 231.21480626 200.90330496 238.89563587 202.88085938 246.57641602 C208.92448547 270.04993889 214.9655217 293.52412364 221 317 C222.90108614 314.14837079 223.55147637 312.41924303 224.36546326 309.16392517 C224.61837568 308.16466759 224.87128811 307.16541 225.13186455 306.13587189 C225.53923442 304.48874836 225.53923442 304.48874836 225.95483398 302.80834961 C226.24688784 301.64745064 226.53894169 300.48655167 226.83984566 299.29047394 C227.64494953 296.08562204 228.44482917 292.87954713 229.24259305 289.67286563 C230.09086973 286.26877583 230.94602285 282.86641458 231.80052185 279.46388245 C233.25923202 273.65192009 234.71405516 267.83899699 236.16619873 262.02539062 C238.44390985 252.90728545 240.7298665 243.79125925 243.01806641 234.67578125 C243.20681225 233.92385884 243.3955581 233.17193642 243.59002352 232.39722848 C244.53826037 228.61979263 245.48662464 224.84238879 246.43507385 221.06500626 C247.19042006 218.05654178 247.94546563 215.0480021 248.70024109 212.03939438 C254.35288231 189.50746924 260.06132736 166.99097206 265.875 144.5 C267.29876636 138.9900704 268.72107887 133.47976851 270.140625 127.96875 C270.32048132 127.27052691 270.50033764 126.57230381 270.68564415 125.85292244 C274.54378626 110.86257594 278.32720194 95.85341154 282.109375 80.84375 C282.57445906 78.99836891 282.57445906 78.99836891 283.04893875 77.1157074 C286.16565245 64.74786539 289.27920025 52.37923371 292.38596344 40.00888824 C293.53802315 35.42327156 294.69183403 30.83809661 295.84598541 26.25300598 C296.38886911 24.09428044 296.93088476 21.93533639 297.47200775 19.77616882 C298.2157548 16.80858645 298.96228858 13.84171853 299.70947266 10.875 C300.03808446 9.55908749 300.03808446 9.55908749 300.37333488 8.21659088 C301.88607078 2.22785843 301.88607078 2.22785843 303 0 C348.87 0 394.74 0 442 0 C442 156.75 442 313.5 442 475 C413.62 475 385.24 475 356 475 C355.67 354.88 355.34 234.76 355 111 C341.08440718 167.77561871 327.18884244 224.54748507 313.4765625 281.37109375 C307.07199712 307.89170569 300.5809681 334.39110349 294.08672333 360.88987064 C292.90404615 365.71561265 291.72150573 370.54138816 290.5390625 375.3671875 C290.30774628 376.31117338 290.07643005 377.25515926 289.83810425 378.22775078 C286.40638555 392.23429923 282.98998993 406.24451533 279.5859375 420.2578125 C279.3720639 421.13810812 279.15819031 422.01840374 278.93783569 422.92537498 C276.91574759 431.24858907 274.89496769 439.57211786 272.87792778 447.89655685 C272.16157534 450.8520521 271.44426217 453.80731361 270.72673416 456.76252365 C270.39716949 458.12098099 270.06807422 459.4795523 269.73948288 460.83824539 C269.29442516 462.67849198 268.84769914 464.51833486 268.40087891 466.3581543 C268.15270416 467.38257126 267.90452942 468.40698822 267.64883423 469.46244812 C267.1717346 471.32835626 266.60903508 473.17289477 266 475 C236.3 475 206.6 475 176 475 C173.34807942 464.17729709 170.69617081 453.35459504 168.046875 442.53125 C167.40561096 439.91145539 166.76433986 437.29166252 166.12304688 434.671875 C165.95452335 433.98342751 165.78599983 433.29498001 165.61236954 432.58567047 C164.28443248 427.1611492 162.95575601 421.73680923 161.62695312 416.3125 C150.51421593 370.94695955 139.45775702 325.56836261 128.49633789 280.16601562 C127.58355224 276.38540311 126.6707073 272.60480491 125.7578125 268.82421875 C125.52986685 267.8801907 125.3019212 266.93616264 125.0670681 265.96352768 C118.12593817 237.22031153 111.14379303 208.48703226 104.16483688 179.75298214 C103.1435312 175.54793285 102.12234588 171.34285434 101.10115433 167.13777733 C100.41530319 164.31391976 99.72919942 161.49012367 99.0430603 158.66633606 C95.34682514 143.44784574 91.67470143 128.22376309 88 113 C87.67 232.46 87.34 351.92 87 475 C58.29 475 29.58 475 0 475 C0 318.25 0 161.5 0 0 Z " fill="#2D3194" transform="translate(1373,317)"/>
<path d="M0 0 C4.1172876 3.54380826 8.07245843 7.24823652 12 11 C12.76699219 11.72574219 13.53398437 12.45148438 14.32421875 13.19921875 C18.85753312 17.59437497 22.08483528 21.77978037 26 27 C26.33 12.48 26.66 -2.04 27 -17 C54.39 -17 81.78 -17 110 -17 C110.04416903 26.03286386 110.08106721 69.06570618 110.10213066 112.09858626 C110.10463179 117.18991041 110.10722046 122.28123451 110.10986328 127.37255859 C110.11065021 128.89281487 110.11065021 128.89281487 110.11145304 130.4437834 C110.12013327 146.81052213 110.13588999 163.17724668 110.15430559 179.54397702 C110.17307116 196.3631966 110.18413074 213.1824088 110.18817699 230.00163841 C110.1909083 240.36295981 110.19950498 250.72424109 110.21583293 261.08555013 C110.22648218 268.21032636 110.22958286 275.33508215 110.22700275 282.45986575 C110.22573369 286.55795564 110.22754686 290.65597591 110.23841095 294.75405312 C110.29384454 316.75847417 110.0100372 338.76143172 106.1875 360.5 C106.01645752 361.48935547 105.84541504 362.47871094 105.66918945 363.49804688 C101.54898359 386.22664771 92.33089331 408.53259802 77 426 C76.34644531 426.74894531 75.69289062 427.49789063 75.01953125 428.26953125 C51.12097793 453.87192139 12.25589085 463.00736787 -21.3125 465.125 C-21.96573242 465.16669312 -22.61896484 465.20838623 -23.29199219 465.25134277 C-72.64268349 468.35521631 -130.60363844 466.85660246 -170.30078125 433.4453125 C-185.06227601 420.07238092 -195.06766428 403.27879299 -200 384 C-200.3403125 382.69095703 -200.3403125 382.69095703 -200.6875 381.35546875 C-202.98306959 370.46745464 -202.13723059 359.06450095 -202 348 C-182.0999965 350.14474161 -162.22921311 352.50023938 -142.36621094 354.96166992 C-139.0796383 355.36853632 -135.79252237 355.77054912 -132.50488281 356.16870117 C-128.46582689 356.65786973 -124.42779615 357.15477589 -120.39039612 357.65742302 C-118.86927836 357.84551118 -117.34782392 358.03089773 -115.82603455 358.21347237 C-113.7235123 358.46630375 -111.62246464 358.72908663 -109.52148438 358.99438477 C-107.73502502 359.21397606 -107.73502502 359.21397606 -105.91247559 359.43800354 C-103 360 -103 360 -100 362 C-99.2265625 364.5390625 -99.2265625 364.5390625 -98.625 367.625 C-96.57864357 376.44331947 -92.66617172 382.97888168 -85 388 C-73.7890729 393.8258493 -61.77773567 394.36593974 -49.375 394.3125 C-48.38587616 394.31026428 -48.38587616 394.31026428 -47.37677002 394.3079834 C-28.90858198 394.23302089 -6.68959273 392.50469583 7.22265625 378.8125 C21.32027817 362.36966621 21.18138023 340.94271123 21.09765625 320.38671875 C21.09578475 319.03766432 21.09436432 317.68860919 21.09336853 316.33955383 C21.08960086 312.83637523 21.07982176 309.33323994 21.06866455 305.83007812 C21.05832476 302.23633408 21.05384435 298.64258285 21.04882812 295.04882812 C21.03819261 288.03253467 21.0211879 281.0162702 21 274 C20.3827153 274.75563232 19.7654306 275.51126465 19.12944031 276.28979492 C18.31932999 277.28084229 17.50921967 278.27188965 16.67456055 279.29296875 C15.87165085 280.27547607 15.06874115 281.2579834 14.24150085 282.27026367 C-1.10572842 300.96036999 -19.52078476 315.11377994 -43 322 C-43.96776367 322.28399658 -43.96776367 322.28399658 -44.95507812 322.57373047 C-76.70403349 331.62630797 -110.38763853 326.56539687 -139.20654297 311.00390625 C-172.49387254 292.37097687 -194.51169482 256.48622095 -204.98413086 220.67724609 C-206.6641861 214.62764767 -208.04715903 208.53640969 -209.25 202.375 C-209.40114258 201.6018042 -209.55228516 200.8286084 -209.70800781 200.03198242 C-212.61275406 184.02801085 -213.37179953 168.16848247 -213.3125 151.9375 C-213.31134186 150.95231384 -213.31018372 149.96712769 -213.30899048 148.9520874 C-213.27375526 133.7701698 -212.6191865 118.9854885 -210 104 C-209.88785156 103.30036133 -209.77570313 102.60072266 -209.66015625 101.87988281 C-204.80775833 71.73211426 -193.26886071 43.02013218 -173 20 C-171.81277344 18.61361328 -171.81277344 18.61361328 -170.6015625 17.19921875 C-128.70673964 -30.57673855 -50.04566014 -40.95306201 0 0 Z M-92 60 C-92.63292969 60.47050781 -93.26585938 60.94101562 -93.91796875 61.42578125 C-112.10466372 75.53399542 -118.40262183 99.96891136 -121.58276367 121.6171875 C-125.78183531 155.66185495 -124.50779754 197.66004997 -103.25927734 226.39355469 C-92.78818035 239.75141009 -78.72515734 248.82276563 -62 252 C-44.58437984 253.79321768 -26.47375669 250.76888081 -12.40576172 239.75146484 C9.69860827 221.29624184 19.70700582 198.45823897 22.80767822 170.15200806 C23.41000293 163.41222206 23.34414827 156.63576402 23.3125 149.875 C23.31067719 149.0646228 23.30885437 148.25424561 23.30697632 147.41931152 C23.25915251 134.7657853 22.79450213 122.39097647 20 110 C19.75056641 108.88987549 19.75056641 108.88987549 19.49609375 107.75732422 C15.91618732 92.61896063 9.56224955 78.54977695 -1 67 C-1.55171875 66.36835937 -2.1034375 65.73671875 -2.671875 65.0859375 C-14.8476085 51.92454938 -31.87753254 46.05100778 -49.32421875 45.0390625 C-65.48891862 44.86728035 -79.5582782 49.79819538 -92 60 Z " fill="#2D3194" transform="translate(4473,465)"/>
<path d="M0 0 C1.12519043 0.26627197 2.25038086 0.53254395 3.40966797 0.80688477 C6.51345092 1.54212412 9.6155987 2.28386039 12.71722412 3.02813721 C18.91234245 4.51181057 25.11265729 5.97372297 31.3125 7.4375 C32.02604645 7.60626648 32.7395929 7.77503296 33.47476196 7.94891357 C44.02447856 10.44191993 54.59337729 12.82831371 65.1875 15.125 C81.74386833 18.71476582 98.25059847 22.49700924 114.734375 26.40625 C117.59363981 27.08379934 120.45302919 27.7608206 123.3125 28.4375 C124.02930939 28.60723328 124.74611877 28.77696655 125.48464966 28.95184326 C136.63070505 31.58737453 147.80232045 34.0793478 158.99822998 36.49334717 C169.72085274 38.80849251 180.38290617 41.33151392 191.03637695 43.94555664 C199.22565837 45.94153661 207.43867036 47.76771692 215.6875 49.5 C226.38776206 51.74835072 237.01384758 54.22874137 247.63427734 56.82641602 C259.56437403 59.73609861 271.53941935 62.42997236 283.52186584 65.11431885 C290.95301789 66.78063575 298.37797639 68.47398098 305.80218506 70.17092896 C307.27498344 70.50752143 308.74784029 70.84385821 310.22076416 71.17990112 C320.72030386 73.57535324 331.20705947 76.02234483 341.6875 78.5 C341.94652279 87.89677121 341.55612471 97.13385498 340.80078125 106.5 C339.99446323 116.93587566 339.31080202 127.37422533 338.72265625 137.82421875 C338.68281868 138.52818094 338.64298111 139.23214314 338.60193634 139.95743752 C338.23388019 146.46654339 337.87186699 152.97598056 337.51293945 159.4855957 C336.64440411 175.20372221 335.69023196 190.90798425 334.47312343 206.60334516 C332.87091973 227.33894342 331.51537141 248.0867074 330.2279613 268.84387827 C329.93558029 273.55055085 329.64055542 278.25705797 329.34596252 282.96359253 C328.85267957 290.85078327 328.36136586 298.73809468 327.87133789 306.62548828 C327.31214963 315.62571389 326.74986423 324.6257419 326.18590301 333.6256696 C325.63365723 342.43972782 325.08357869 351.25392009 324.53444099 360.06817245 C324.25000258 364.63313209 323.96431376 369.19801234 323.6781252 373.76286256 C323.51555076 376.36619164 323.3550024 378.96964043 323.19458103 381.57310295 C322.98691701 384.9341202 322.76876728 388.29421743 322.54285336 391.65405464 C322.04476798 399.23670542 321.6408708 406.79088949 321.57110375 414.39110148 C321.53683559 417.84869402 321.45884867 421.3048181 321.37987339 424.76164031 C321.35642192 426.38010829 321.35546392 427.99909974 321.37984741 429.61755395 C321.50237754 437.88471213 321.07065494 443.83726721 315.23645538 450.07980359 C298.35985363 466.41885064 278.55380248 477.07739887 254.88061523 476.91772461 C235.26225721 476.38659873 219.1117897 466.03004079 204.6875 453.5 C204.15904984 453.07282181 203.63059967 452.64564362 203.08613586 452.20552063 C199.88453828 449.3988915 198.78194196 448.06588304 198.05761719 443.72583008 C198.08423555 442.3019266 198.14522182 440.87839023 198.234375 439.45703125 C198.25949158 438.67278275 198.28460815 437.88853424 198.31048584 437.08052063 C198.40217439 434.55088465 198.5408322 432.02699917 198.6875 429.5 C198.76802328 427.86379138 198.84810189 426.22756081 198.92773438 424.59130859 C199.1615108 420.11946651 199.44534263 415.65182415 199.740448 411.18365479 C200.09851649 405.73926128 200.4343758 400.29350159 200.76953125 394.84765625 C200.84325455 393.65110413 200.91697784 392.454552 200.99293518 391.22174072 C201.93707379 375.68406817 202.70944949 360.13732963 203.49959564 344.59122467 C204.86306157 317.77705839 206.33071289 290.97205795 207.94114685 264.1715889 C209.12370053 244.49022954 210.23231824 224.80910416 211.09228516 205.1105957 C211.15893208 203.59585497 211.22581585 202.08112464 211.29296875 200.56640625 C211.33965446 199.51193298 211.33965446 199.51193298 211.38728333 198.43615723 C211.63838765 193.01627693 212.04755828 187.61631637 212.48901367 182.20922852 C212.72197691 179.02940923 212.78840649 175.87523902 212.75 172.6875 C212.73646484 171.19283203 212.73646484 171.19283203 212.72265625 169.66796875 C212.71105469 168.95253906 212.69945312 168.23710938 212.6875 167.5 C212.0275 167.83 211.3675 168.16 210.6875 168.5 C174.43400035 170.59986199 136.78433416 160.02847189 101.66833496 152.07240295 C96.33471664 150.86571885 90.99558061 149.6867322 85.65234375 148.5234375 C68.86027134 144.85955695 52.15716124 140.94405462 35.49755859 136.71728516 C26.79243683 134.51069341 18.07483078 132.40805446 9.3125 130.4375 C-0.30492883 128.26379723 -9.84838364 125.85012133 -19.375 123.3125 C-20.63038574 122.97919678 -21.88577148 122.64589355 -23.17919922 122.30249023 C-26.56403225 121.3915416 -29.9404422 120.4570709 -33.3125 119.5 C-34.65103027 119.12282837 -34.65103027 119.12282837 -36.01660156 118.73803711 C-47.47934425 115.25567 -54.40649077 104.6043415 -59.97265625 94.48046875 C-68.50390854 77.81622903 -72.02542296 57.64285744 -66.4140625 39.26171875 C-61.24316671 26.29780625 -53.87789305 16.30205087 -42.3125 8.5 C-41.7453125 8.08234375 -41.178125 7.6646875 -40.59375 7.234375 C-36.12394627 4.13687943 -31.29520762 2.14286383 -26.25 0.1875 C-25.57710937 -0.07933594 -24.90421875 -0.34617187 -24.2109375 -0.62109375 C-15.72482863 -3.77639842 -8.55713568 -2.07988671 0 0 Z " fill="#95AFD4" transform="translate(653.3125,558.5)"/>
<path d="M0 0 C6.6440908 0.06682275 13.8035952 0.58669862 19.99584961 3.13891602 C22.82201089 4.2399013 25.55590949 4.93787258 28.515625 5.59765625 C29.68633545 5.86054443 30.8570459 6.12343262 32.06323242 6.39428711 C33.34174072 6.67667236 34.62024902 6.95905762 35.9375 7.25 C37.30515854 7.55513259 38.6727512 7.86056057 40.0402832 8.16625977 C44.58774466 9.1806643 49.13737292 10.18512827 53.6875 11.1875 C54.88956085 11.45234192 54.88956085 11.45234192 56.11590576 11.72253418 C65.53297511 13.79633008 74.95195053 15.86142935 84.37109375 17.92578125 C86.96670837 18.49475172 89.5623115 19.06377456 92.15789795 19.63287354 C93.82084727 19.99748255 95.48381072 20.36202709 97.14678955 20.72650146 C114.46482683 24.52329809 131.75012825 28.39553945 148.97094727 32.6159668 C158.4095538 34.9151229 167.88696059 37.01025632 177.38244629 39.05789185 C188.56343154 41.47142118 199.6989439 44.04878429 210.82659912 46.69647217 C221.19471503 49.16084233 231.58261119 51.50345092 242 53.75 C253.32469763 56.1933228 264.59536556 58.81693245 275.84960938 61.56713867 C288.27141935 64.59432366 300.74070308 67.39799681 313.21777344 70.18701172 C318.32596113 71.32946172 323.43252923 72.47908751 328.5390625 73.62890625 C329.45973007 73.83620361 330.38039764 74.04350098 331.32896423 74.25708008 C333.17840797 74.67351313 335.02784951 75.08995596 336.87728882 75.50640869 C341.26049544 76.49319855 345.64391042 77.47906155 350.02734375 78.46484375 C350.80385284 78.63947647 351.58036194 78.81410919 352.38040161 78.99403381 C354.14943108 79.39187066 355.91846498 79.78968783 357.6875 80.1875 C357.79046851 89.48310295 357.51363881 98.67687803 356.875 107.94921875 C356.73743164 110.03178868 356.60177228 112.11447788 356.4662323 114.19718075 C356.36758925 115.71264618 356.26846557 117.22808038 356.16889954 118.74348545 C355.55547783 128.11282862 354.99916642 137.48559486 354.43908691 146.85824966 C354.11978171 152.19660777 353.79794733 157.53481364 353.4765625 162.87304688 C353.08069784 169.4523325 352.68543603 176.03165311 352.29199219 182.61108398 C349.77501566 224.68436587 349.77501566 224.68436587 348.6875 238.625 C347.72135611 251.02599863 346.9853535 263.43899718 346.25 275.85546875 C346.18668488 276.92349543 346.12336975 277.9915221 346.05813599 279.09191322 C345.46520256 289.10619407 344.87784591 299.12080085 344.29199219 309.13549805 C343.96793821 314.67167378 343.64098668 320.20767301 343.31246948 325.74358559 C343.13194431 328.80038216 342.95469983 331.85735652 342.77758789 334.91435242 C342.13365038 345.85567476 341.33638566 356.77335076 340.40046787 367.69361401 C339.70180667 375.87395968 339.13741441 384.05391246 338.65234375 392.25 C338.56822193 393.63144765 338.48378649 395.01287623 338.39906311 396.39428711 C338.13810728 400.65851613 337.88124367 404.92298559 337.625 409.1875 C337.32366184 414.19961324 337.02051843 419.21160605 336.71322823 424.22335815 C336.59318705 426.19508494 336.47622917 428.16699869 336.35935974 430.13891602 C335.32003474 447.14152452 335.32003474 447.14152452 333.53930664 450.08618164 C333.06356201 450.50246826 332.58781738 450.91875488 332.09765625 451.34765625 C331.30041138 452.06743652 331.30041138 452.06743652 330.48706055 452.80175781 C329.91383057 453.27967773 329.34060059 453.75759766 328.75 454.25 C328.15807861 454.76530273 327.56615723 455.28060547 326.95629883 455.81152344 C325.22229635 457.29988532 323.46413158 458.75044187 321.6875 460.1875 C320.85476563 460.86167969 320.02203125 461.53585937 319.1640625 462.23046875 C302.46497291 474.68354409 284.4478577 480.25923594 263.6875 478.1875 C250.69383135 475.92560903 238.90741308 469.52356392 228.63171387 461.42262268 C225.76504052 459.15200827 225.76504052 459.15200827 222.72546387 457.46372986 C218.45828651 454.56577425 215.25913564 451.97245031 214.20303345 446.82722855 C213.65398775 439.26874648 214.53894403 431.71650803 215.21875 424.19140625 C215.40904984 421.59188634 215.59290223 418.99188777 215.77087402 416.39149475 C216.06091407 412.18554692 216.35776862 407.9804592 216.68173981 403.77697277 C217.5250903 392.83031962 218.19419647 381.88114465 218.7734375 370.91748047 C218.81696917 370.09585206 218.86050083 369.27422366 218.90535164 368.42769742 C219.08358775 365.05704977 219.2610407 361.6863626 219.43717289 358.31560433 C219.89255476 349.60800987 220.37331396 340.90186841 220.85643196 332.19577527 C221.05362017 328.64086708 221.24997925 325.08591328 221.44636059 321.53096044 C221.5943852 318.85158861 221.74251874 316.17222283 221.89068604 313.49285889 C222.77249317 297.54610971 223.65304045 281.59929147 224.53125 265.65234375 C224.57817741 264.80057792 224.62510483 263.94881209 224.67345428 263.07123518 C226.41550745 231.44687233 228.0851428 199.81926886 229.6875 168.1875 C228.74640884 168.51274658 227.80531769 168.83799316 226.83570862 169.1730957 C178.07661365 184.88407342 88.176176 147.36667563 40.94754028 135.70718384 C33.73039502 133.92668036 26.50482426 132.18537457 19.27322388 130.46455383 C14.19403726 129.25016769 9.12082862 128.0120494 4.04870605 126.76852417 C1.62770303 126.17968427 -0.79553984 125.59996744 -3.22106934 125.03005981 C-6.58778502 124.23697606 -9.94438438 123.40974323 -13.30078125 122.57421875 C-14.28579117 122.35057648 -15.27080109 122.1269342 -16.28565979 121.89651489 C-28.43401206 118.77889005 -35.74474521 109.31040341 -42.20507812 99.08154297 C-51.51177718 83.16413307 -55.59811247 62.25887439 -51.125 44.1875 C-45.47974106 27.06877497 -33.91367477 14.43202337 -18.328125 5.66015625 C-14.6916275 3.8843019 -11.09319497 2.68247577 -7.17578125 1.6953125 C-0.98408294 0.00784755 -0.98408294 0.00784755 0 0 Z " fill="#6B7EB9" transform="translate(787.3125,444.8125)"/>
<path d="M0 0 C0.67933594 0.21495117 1.35867187 0.42990234 2.05859375 0.65136719 C23.28041366 7.57017689 42.15793678 19.12629663 58.28125 34.45703125 C60.15358629 36.20831132 62.09178833 37.89088819 64.078125 39.51171875 C68.72346832 43.467713 72.23381259 48.22381725 76 53 C76.80824219 53.98097656 77.61648438 54.96195312 78.44921875 55.97265625 C109.41359567 94.42292649 118.6814287 146.44212583 113.734375 194.58496094 C110.96895682 219.04617637 104.33424808 241.56167359 92.88134766 263.32275391 C92.15121417 264.71223232 91.43852313 266.11086038 90.73046875 267.51171875 C71.90040104 303.50842063 36.63748182 331.23813895 -1.625 343.625 C-15.84770714 348.04233931 -31.04075299 351.10699208 -45.953125 351.203125 C-47.0535891 351.21371445 -47.0535891 351.21371445 -48.17628479 351.22451782 C-63.65766318 351.33960277 -78.82354676 351.42855711 -94 348 C-94.87769043 347.81195801 -95.75538086 347.62391602 -96.65966797 347.43017578 C-127.49127422 340.68425253 -156.1183706 326.90545068 -179 305 C-179.73476562 304.32839844 -180.46953125 303.65679688 -181.2265625 302.96484375 C-192.58887516 292.22484857 -200.949985 278.85185902 -208 265 C-208.34659668 264.32163086 -208.69319336 263.64326172 -209.05029297 262.94433594 C-232.68453202 215.72026223 -234.17527669 155.43160963 -218.26904297 105.71533203 C-216.70705146 101.05941644 -214.93030973 96.51469136 -213 92 C-212.70899414 91.31776367 -212.41798828 90.63552734 -212.11816406 89.93261719 C-194.52115246 49.35707404 -163.83808167 19.77912486 -123 3 C-84.55276863 -11.80918054 -39.12483027 -12.40846477 0 0 Z M-113.74609375 93.03125 C-136.27609204 119.98881673 -139.17576269 156.49253178 -136.77294922 190.18359375 C-134.3577278 215.57110634 -124.95841599 242.03113578 -105 259 C-87.24061535 273.20109639 -68.38059589 277.78237962 -46 276 C-31.36718054 274.08505795 -18.91718721 267.77815484 -8 258 C-7.16597656 257.26007813 -6.33195312 256.52015625 -5.47265625 255.7578125 C4.5847027 246.30482488 11.40810652 234.97337935 16 222 C16.35707031 221.0203125 16.71414062 220.040625 17.08203125 219.03125 C25.7114161 193.43397359 26.6540243 160.23624147 20 134 C19.75056641 132.98534668 19.75056641 132.98534668 19.49609375 131.95019531 C15.56701863 116.54676563 8.82393417 102.72753081 -2 91 C-2.61230469 90.29617188 -3.22460938 89.59234375 -3.85546875 88.8671875 C-12.73995546 79.20601858 -24.58346825 72.85787801 -37 69 C-38.17175781 68.63261719 -38.17175781 68.63261719 -39.3671875 68.2578125 C-66.60242769 61.37832276 -95.56996646 72.43909999 -113.74609375 93.03125 Z " fill="#2D3194" transform="translate(3282,448)"/>
<path d="M0 0 C0.67933594 0.21495117 1.35867187 0.42990234 2.05859375 0.65136719 C17.87343817 5.8073764 32.98677722 13.63643178 46 24 C46.75410156 24.55300781 47.50820312 25.10601562 48.28515625 25.67578125 C83.89806329 52.48950591 105.53061119 93.98667533 112.56079102 137.46850586 C114.08298547 148.55898976 114.3592516 159.50249332 114.3125 170.6875 C114.31034485 171.61575592 114.3081897 172.54401184 114.30596924 173.50039673 C114.25616535 186.86208798 113.99961938 199.92208385 111 213 C110.79068848 213.93247559 110.58137695 214.86495117 110.36572266 215.82568359 C104.11327697 242.99926388 92.91990415 268.45427867 75 290 C74.5575293 290.53657227 74.11505859 291.07314453 73.65917969 291.62597656 C67.85152894 298.64499208 62.09178118 305.23979799 55 311 C53.70625946 312.16436648 52.41464485 313.33109879 51.125 314.5 C46.66675504 318.38689706 41.92864444 321.73767329 37 325 C36.04480469 325.639375 35.08960937 326.27875 34.10546875 326.9375 C10.79030169 341.95305413 -18.1574145 351.02393936 -45.953125 351.203125 C-47.0535891 351.21371445 -47.0535891 351.21371445 -48.17628479 351.22451782 C-63.65766318 351.33960277 -78.82354676 351.42855711 -94 348 C-94.87769043 347.81195801 -95.75538086 347.62391602 -96.65966797 347.43017578 C-138.27252697 338.32532569 -175.13686192 316.7308494 -199 281 C-199.72832031 279.92105469 -200.45664063 278.84210938 -201.20703125 277.73046875 C-227.87645695 236.37501131 -234.05951227 178.52338982 -225 131 C-224.86078125 130.25685547 -224.7215625 129.51371094 -224.578125 128.74804688 C-218.7133202 98.5823148 -205.11293201 69.25054941 -185 46 C-184.14406674 44.91806189 -183.28957683 43.83497783 -182.4375 42.75 C-179.85277669 39.83390191 -177.11238086 37.35618377 -174.14453125 34.83984375 C-172.73933884 33.63429616 -171.36003096 32.39775016 -170.01171875 31.12890625 C-126.51336283 -9.58424421 -54.90135154 -17.41199852 0 0 Z M-113.74609375 93.03125 C-136.62972721 120.41623079 -139.22536655 156.98844029 -136.77294922 191.1640625 C-136.2107616 196.85931066 -135.26890554 202.42160396 -134 208 C-133.83902832 208.72493652 -133.67805664 209.44987305 -133.51220703 210.19677734 C-129.90227621 225.74964932 -122.80060039 240.16649396 -112 252 C-111.47277344 252.60714844 -110.94554687 253.21429687 -110.40234375 253.83984375 C-98.17811086 267.08526563 -80.77037595 275.41486155 -62.84375 276.3203125 C-42.44834076 276.93927411 -23.90284458 272.65771057 -8.5625 258.5625 C-6.66691232 256.74320918 -4.83436982 254.8830699 -3 253 C-2.24976562 252.2471875 -1.49953125 251.494375 -0.7265625 250.71875 C23.12983497 225.49129521 23.95171525 188.56420936 23.0736084 155.9987793 C22.11590972 129.99321017 12.08615591 103.90530238 -6.91796875 85.80078125 C-23.4384658 71.51194609 -42.14947175 65.94874022 -63.65869141 66.82958984 C-83.0820887 68.24330531 -101.02703526 78.62153795 -113.74609375 93.03125 Z " fill="#2D3194" transform="translate(2113,448)"/>
<path d="M0 0 C1.27423828 1.03060547 1.27423828 1.03060547 2.57421875 2.08203125 C25.93018136 21.93281111 32.79893677 50.96384881 35.27464962 80.24880219 C36.12054419 92.29800749 36.13432015 104.31411316 36.11352539 116.38867188 C36.11324277 118.70627338 36.11340271 121.02387498 36.1139679 123.34147644 C36.11425295 129.58620553 36.10840363 135.83091513 36.10139394 142.07563972 C36.09511158 148.61923242 36.09455276 155.16282565 36.09336853 161.7064209 C36.09078736 172.67423843 36.08438917 183.6420492 36.07543945 194.60986328 C36.06623754 205.8985999 36.05917035 217.18733459 36.05493164 228.47607422 C36.05453756 229.5226848 36.05453756 229.5226848 36.05413551 230.59043902 C36.05283032 234.0913656 36.05156665 237.5922922 36.05032361 241.0932188 C36.03998432 270.06215126 36.02156413 299.03107346 36 328 C6.63 328 -22.74 328 -53 328 C-53.01981934 321.76416016 -53.03963867 315.52832031 -53.06005859 309.10351562 C-53.12714468 288.43620573 -53.20468488 267.76894465 -53.28752708 247.1016922 C-53.33747211 234.57854918 -53.38391579 222.05541212 -53.421875 209.53222656 C-53.45500138 198.60646484 -53.49494355 187.68075198 -53.54279006 176.75504446 C-53.56785169 170.97958723 -53.58969081 165.20416156 -53.60334396 159.42866516 C-53.61635169 153.97201575 -53.63859886 148.51547573 -53.66738319 143.05888748 C-53.67631522 141.07585981 -53.68211464 139.09281459 -53.68421364 137.10976791 C-53.69752912 126.42288383 -54.0451774 115.82650678 -54.91055298 105.17175293 C-54.98989401 104.1852829 -55.06923505 103.19881288 -55.15098035 102.18244982 C-56.61700872 85.58269904 -60.68265751 69.93845938 -73.21875 58.1953125 C-79.81760078 52.98666904 -87.64650616 49.2289125 -96 48 C-96.86753906 47.86722656 -97.73507813 47.73445313 -98.62890625 47.59765625 C-116.34968971 45.49759003 -133.75632386 50.33869421 -148 61 C-166.00259806 75.21675758 -172.38477645 94.15209667 -175.125 116.3125 C-176.8650001 131.16355347 -177.15483367 146.0688669 -177.20532227 161.00415039 C-177.2149308 162.83914902 -177.22494246 164.67414558 -177.23532104 166.50914001 C-177.26205453 171.43358264 -177.28323225 176.35803454 -177.30332303 181.28250813 C-177.32538032 186.45010973 -177.35267123 191.61768379 -177.37937927 196.78526306 C-177.42904199 206.54532234 -177.4740774 216.30539712 -177.51740164 226.06548637 C-177.57629751 239.27231218 -177.64244027 252.47910164 -177.70815182 265.68589497 C-177.81131253 286.45723872 -177.90487624 307.22861429 -178 328 C-207.37 328 -236.74 328 -267 328 C-267 214.48 -267 100.96 -267 -16 C-239.61 -16 -212.22 -16 -184 -16 C-183.67 -0.49 -183.34 15.02 -183 31 C-180.36 27.7 -177.72 24.4 -175 21 C-172.61568874 18.41870165 -170.24155472 15.90636783 -167.75 13.4375 C-167.10450195 12.79619141 -166.45900391 12.15488281 -165.79394531 11.49414062 C-160.23561004 6.0645593 -154.4326315 1.3777631 -148 -3 C-147.13375 -3.61101562 -146.2675 -4.22203125 -145.375 -4.8515625 C-104.14671483 -32.70519564 -38.84141295 -32.11297921 0 0 Z " fill="#2D3194" transform="translate(2561,464)"/>
<path d="M0 0 C1.02222656 0.35707031 2.04445312 0.71414063 3.09765625 1.08203125 C25.81407409 9.73444881 42.98069966 25.89374253 53.21484375 47.87109375 C61.63707703 66.86240408 64.18520241 88.0341583 64.12025452 108.66191101 C64.12153615 110.18283984 64.12153615 110.18283984 64.12284368 111.73449451 C64.12447838 115.09995171 64.11901032 118.46535801 64.11352539 121.83081055 C64.11324306 124.25604755 64.11340215 126.68128465 64.1139679 129.10652161 C64.11419492 134.31142854 64.11137597 139.51632416 64.10573006 144.72122765 C64.09757255 152.24646848 64.09499549 159.77170327 64.09374207 167.29694805 C64.0915582 179.50875984 64.08491622 191.72056491 64.07543945 203.93237305 C64.06624808 215.78881802 64.0591757 227.64526116 64.05493164 239.50170898 C64.05453756 240.59957541 64.05453756 240.59957541 64.05413551 241.71962097 C64.05283039 245.3917255 64.0515667 249.06383006 64.05032361 252.73593462 C64.03997173 283.15729561 64.02154463 313.57864428 64 344 C34.96 344 5.92 344 -24 344 C-24.04898438 329.67078125 -24.09796875 315.3415625 -24.1484375 300.578125 C-24.18385809 291.45442134 -24.2197603 282.33072369 -24.2578125 273.20703125 C-24.31800988 258.7524559 -24.37634303 244.29789171 -24.421875 229.84326172 C-24.45505897 219.31152848 -24.49503061 208.77984533 -24.54279006 198.24816775 C-24.5677959 192.68385254 -24.58964988 187.11956943 -24.60334396 181.55521393 C-21.42002555 125.11380665 -21.42002555 125.11380665 -42.91796875 75.89453125 C-52.94347672 66.77188328 -65.49731607 62.84997018 -79 63 C-96.28140644 64.19753883 -112.64875864 69.47449069 -125 82 C-125.66 82 -126.32 82 -127 82 C-127.27328125 82.5878125 -127.5465625 83.175625 -127.828125 83.78125 C-128.9655716 85.93481556 -130.21442675 87.6176844 -131.75 89.5 C-148.31116537 111.43344584 -147.8631804 141.26326616 -148.54272461 167.50878906 C-148.56347546 168.27942578 -148.5842263 169.05006249 -148.60560596 169.84405184 C-149.07202642 187.34549414 -149.21549142 204.84626043 -149.30332303 222.35304928 C-149.32579018 226.65703469 -149.35287025 230.96099154 -149.37937927 235.26495361 C-149.4285126 243.34920414 -149.473732 251.43347119 -149.51740164 259.51775289 C-149.57690335 270.4886258 -149.64274263 281.45946078 -149.70815182 292.43029976 C-149.81047872 309.62017396 -149.90459068 326.81008278 -150 344 C-179.04 344 -208.08 344 -238 344 C-238 230.48 -238 116.96 -238 0 C-210.94 0 -183.88 0 -156 0 C-155.67 15.51 -155.34 31.02 -155 47 C-148.565 39.575 -148.565 39.575 -142 32 C-106.38758321 -7.11527746 -48.80329935 -17.49354002 0 0 Z " fill="#2D3194" transform="translate(4127,448)"/>
<path d="M0 0 C0.99 0 1.98 0 3 0 C3 39.93 3 79.86 3 121 C22.8 121 42.6 121 63 121 C63 145.09 63 169.18 63 194 C43.2 194 23.4 194 3 194 C3.08556245 216.72309039 3.17921662 239.44610081 3.28752708 262.16909313 C3.33756445 272.72070567 3.38400814 283.27231079 3.421875 293.82397461 C3.45490421 303.0250411 3.49479517 312.22604842 3.54279006 321.42704946 C3.56794677 326.29503909 3.58975953 331.16299002 3.60334396 336.03102684 C3.61626321 340.62173576 3.63842184 345.21231123 3.66738319 349.80294609 C3.67638247 351.47936807 3.68213109 353.15581148 3.68421364 354.83225632 C2.96261244 373.09800343 2.96261244 373.09800343 10 389 C15.7691527 394.46551308 21.58381238 395.5064691 29.31640625 395.390625 C37.07430142 394.56794259 44.53765955 392.20150085 52 390 C53.13566406 389.67 54.27132812 389.34 55.44140625 389 C57.63307374 388.35154077 59.81781783 387.67969608 62 387 C63.36012104 389.72024209 63.43603996 392.19281362 63.75610352 395.22216797 C63.89617325 396.53047577 64.03624298 397.83878357 64.18055725 399.18673706 C64.33015122 400.62187217 64.47959727 402.05702271 64.62890625 403.4921875 C64.78413897 404.95951245 64.9396553 406.42680743 65.09544373 407.89407349 C65.42143866 410.97226432 65.74479521 414.05071715 66.06616211 417.12939453 C66.47791831 421.07307231 66.89492254 425.01617239 67.31375217 428.95910454 C67.635403 431.99067872 67.95489112 435.02247763 68.27366447 438.05435562 C68.42664777 439.50805238 68.58015403 440.9616942 68.7341938 442.41527939 C68.94932499 444.44965396 69.16169797 446.48429776 69.37329102 448.51904297 C69.55529808 450.25539505 69.55529808 450.25539505 69.74098206 452.02682495 C70 455 70 455 70 459 C61.47959826 462.86205125 53.06152852 465.6895573 43.9375 467.75 C42.62918213 468.04716919 42.62918213 468.04716919 41.29443359 468.3503418 C28.51653716 471.1144386 15.92640454 472.4141185 2.875 472.375 C2.15555206 472.37412384 1.43610413 472.37324768 0.69485474 472.37234497 C-23.68628908 472.27479744 -47.54088643 466.95751349 -65.8125 449.6875 C-92.34960456 421.54208608 -86.15390542 371.7432718 -86.10139394 336.22016764 C-86.09506754 331.20609583 -86.09454936 326.19202318 -86.09336853 321.177948 C-86.09028223 311.71907015 -86.08210592 302.2602041 -86.07201904 292.8013314 C-86.06077316 282.01747299 -86.05532627 271.23361397 -86.05032361 260.44975114 C-86.03992051 238.29982608 -86.02160935 216.14991716 -86 194 C-99.2 194 -112.4 194 -126 194 C-126 169.91 -126 145.82 -126 121 C-112.8 121 -99.6 121 -86 121 C-86.37125 116.23949219 -86.7425 111.47898437 -87.125 106.57421875 C-90.17331123 57.06759607 -90.17331123 57.06759607 -83.19775391 47.07666016 C-76.62449251 39.96221491 -67.05985376 36.94214338 -57.99462891 34.28515625 C-52.54318108 32.64404581 -48.15445173 29.71182698 -43.5 26.5 C-41.89687771 25.48484946 -40.2872214 24.4799591 -38.671875 23.484375 C-37.80884766 22.95005859 -36.94582031 22.41574219 -36.05664062 21.86523438 C-27.8903619 16.88197803 -19.63641311 12.04180515 -11.39648438 7.18164062 C-10.7156781 6.77943298 -10.03487183 6.37722534 -9.33343506 5.96282959 C-8.041804 5.1999434 -6.74939384 4.43837438 -5.45611572 3.67828369 C-2.562015 2.06457666 -2.562015 2.06457666 0 0 Z " fill="#2D3194" transform="translate(2952,327)"/>
<path d="M0 0 C0.94202271 0.3105835 0.94202271 0.3105835 1.90307617 0.62744141 C9.15251369 3.25673289 15.69436053 7.40997324 22.3125 11.3125 C13.46084568 38.03013118 4.42414536 64.68249779 -4.6875 91.3125 C-8.7566817 90.42290145 -12.03006264 88.53347675 -15.625 86.5 C-30.08655415 78.59571209 -45.4470201 74.90893998 -61.6875 79.3125 C-78.06762093 85.65432222 -85.37672834 95.37795862 -92.3125 111.0625 C-100.47094769 131.61551246 -101.56500878 153.56523959 -102.74755859 175.4206543 C-102.79088027 176.21541589 -102.83420194 177.01017749 -102.87883639 177.82902277 C-103.8006399 195.07090212 -104.03340792 212.29207872 -104.09221697 229.55536866 C-104.10830026 233.6885361 -104.13493458 237.82163834 -104.1602478 241.95475769 C-104.20626343 249.7131385 -104.24336977 257.47153271 -104.27692068 265.22997636 C-104.32301391 275.76220375 -104.38358965 286.29434851 -104.44316864 296.82650661 C-104.53611402 313.32179545 -104.61033335 329.81711229 -104.6875 346.3125 C-134.0575 346.3125 -163.4275 346.3125 -193.6875 346.3125 C-193.6875 232.7925 -193.6875 119.2725 -193.6875 2.3125 C-166.2975 2.3125 -138.9075 2.3125 -110.6875 2.3125 C-110.3575 16.8325 -110.0275 31.3525 -109.6875 46.3125 C-106.3875 41.3625 -103.0875 36.4125 -99.6875 31.3125 C-97.06972754 27.8892591 -94.47569555 24.58179595 -91.6875 21.3125 C-90.96820312 20.45914062 -90.24890625 19.60578125 -89.5078125 18.7265625 C-66.22064107 -8.10606064 -32.14689189 -10.83669048 0 0 Z " fill="#2D3194" transform="translate(3653.6875,445.6875)"/>
<path d="M0 0 C29.37 0 58.74 0 89 0 C89 113.52 89 227.04 89 344 C59.63 344 30.26 344 0 344 C0 230.48 0 116.96 0 0 Z " fill="#2D3194" transform="translate(3712,448)"/>
<path d="M0 0 C29.04 0 58.08 0 88 0 C88 113.52 88 227.04 88 344 C58.96 344 29.92 344 0 344 C0 230.48 0 116.96 0 0 Z " fill="#2D3194" transform="translate(2685,448)"/>
<path d="M0 0 C29.37 0 58.74 0 89 0 C89 28.05 89 56.1 89 85 C59.63 85 30.26 85 0 85 C0 56.95 0 28.9 0 0 Z " fill="#2D3194" transform="translate(3712,317)"/>
<path d="M0 0 C29.04 0 58.08 0 88 0 C88 28.05 88 56.1 88 85 C58.96 85 29.92 85 0 85 C0 56.95 0 28.9 0 0 Z " fill="#2D3194" transform="translate(2685,317)"/>
<path d="M0 0 C19 0 19 0 23.0234375 3.6015625 C24.27636719 5.99389648 24.27636719 5.99389648 25.375 8.625 C26.30267734 10.46325539 27.23244313 12.30045802 28.1640625 14.13671875 C28.62071289 15.09884277 29.07736328 16.0609668 29.54785156 17.05224609 C31.99336998 22.01646758 34.89158493 26.70322421 37.75 31.4375 C38.76688595 33.16462279 39.78253031 34.89247725 40.796875 36.62109375 C44.46782775 42.78560831 48.23972848 48.88955878 52 55 C52.33 36.85 52.66 18.7 53 0 C58.94 0 64.88 0 71 0 C71 30.03 71 60.06 71 91 C52 91 52 91 48.328125 87.37890625 C47.51358947 85.60309391 46.74173089 83.80743268 46 82 C45.0502005 80.35836814 44.098556 78.71748677 43.1138916 77.0965271 C42.0252845 75.30429822 40.96813137 73.49663469 39.91796875 71.68164062 C39.56009277 71.06393799 39.2022168 70.44623535 38.83349609 69.80981445 C38.29716553 68.8830188 38.29716553 68.8830188 37.75 67.9375 C31.70119961 57.48767588 25.404174 47.2466784 19 37 C18.67 54.82 18.34 72.64 18 91 C12.06 91 6.12 91 0 91 C0 60.97 0 30.94 0 0 Z " fill="#2D3194" transform="translate(2409,840)"/>
<path d="M0 0 C5.2497198 4.62475316 8.69329873 10.1608491 10.96875 16.734375 C10.96875 18.054375 10.96875 19.374375 10.96875 20.734375 C8.55400383 21.26597957 6.13766893 21.78492266 3.71875 22.296875 C3.03683594 22.44833984 2.35492187 22.59980469 1.65234375 22.75585938 C-5.14891909 24.17554045 -5.14891909 24.17554045 -8.03125 22.734375 C-9.234375 21.02734375 -9.234375 21.02734375 -10.28125 18.921875 C-13.01796953 14.30262416 -15.83454177 12.13484383 -21.03125 10.734375 C-27.60993917 9.90005145 -34.29449196 10.14435305 -40.03125 13.734375 C-46.29974634 18.88034382 -48.88261341 24.81809579 -50.03125 32.734375 C-50.94472632 43.29724903 -50.05664249 54.30390401 -43.03125 62.734375 C-38.11834357 67.64728143 -33.5279006 69.53688697 -26.71875 69.8359375 C-19.84236692 69.54942154 -12.07669685 67.53045875 -7.03125 62.734375 C-6.53625 57.784375 -6.53625 57.784375 -6.03125 52.734375 C-12.96125 52.734375 -19.89125 52.734375 -27.03125 52.734375 C-27.03125 47.124375 -27.03125 41.514375 -27.03125 35.734375 C-14.16125 35.734375 -1.29125 35.734375 11.96875 35.734375 C12.13375 41.880625 12.29875 48.026875 12.46875 54.359375 C12.54158203 56.28861816 12.61441406 58.21786133 12.68945312 60.20556641 C12.95763119 72.23974831 12.95763119 72.23974831 10.34570312 76.1875 C8.26987381 77.78217682 6.39799723 78.77922381 3.96875 79.734375 C2.53015625 80.53101563 2.53015625 80.53101563 1.0625 81.34375 C0.2065625 81.72015625 -0.649375 82.0965625 -1.53125 82.484375 C-2.3871875 82.87109375 -3.243125 83.2578125 -4.125 83.65625 C-16.94176156 88.41085509 -32.3759397 88.75566747 -45.265625 84.0625 C-49.78280955 81.89323058 -53.41769096 79.18667989 -57.03125 75.734375 C-57.87623047 74.93193359 -57.87623047 74.93193359 -58.73828125 74.11328125 C-68.64126642 63.65873741 -70.63969952 49.57414223 -70.27734375 35.765625 C-69.67960834 23.25184087 -65.48743503 10.92578023 -56.0703125 2.296875 C-40.4559042 -9.66818883 -16.38208271 -11.98978517 0 0 Z " fill="#2D3194" transform="translate(1443.03125,845.265625)"/>
<path d="M0 0 C11.07929851 -0.47102378 21.36812943 2.15092743 29.98828125 9.16015625 C30.81972656 9.76859375 31.65117187 10.37703125 32.5078125 11.00390625 C35.23637935 13.37582578 36.79525976 15.60545502 38.61328125 18.72265625 C39.18304687 19.67269531 39.7528125 20.62273438 40.33984375 21.6015625 C44.25879385 30.06166567 45.52443636 38.26940589 45.42578125 47.53515625 C45.41820801 48.53885254 45.41063477 49.54254883 45.40283203 50.57666016 C45.09860362 64.31579295 41.01811367 74.83943134 31.61328125 84.97265625 C23.68925702 92.51269693 13.82416446 94.54283672 3.17578125 94.47265625 C2.28721436 94.4670166 1.39864746 94.46137695 0.4831543 94.45556641 C-12.21918468 94.21997073 -21.26356322 90.22571369 -30.26171875 81.16015625 C-40.42144357 69.23616784 -40.84203636 52.9982394 -40.01171875 38.16015625 C-38.93300721 29.30192335 -36.12509513 22.43372907 -31.01171875 15.16015625 C-30.41359375 14.25265625 -29.81546875 13.34515625 -29.19921875 12.41015625 C-21.01749119 3.99466505 -11.39512537 0.90718474 0 0 Z M-14.82421875 24.72265625 C-21.61618385 33.14283216 -21.87507992 43.76434163 -21.01171875 54.16015625 C-19.6243238 62.66736096 -16.90025046 69.03242422 -10.13671875 74.47265625 C-3.36799485 78.12776715 2.54672638 78.9241669 9.98828125 77.16015625 C16.81090569 74.4673328 20.68268292 69.55387934 23.98828125 63.16015625 C27.61481844 53.76412807 27.41305638 40.79231028 24.03515625 31.34375 C21.32217556 25.68495819 17.84132837 20.7786247 11.98828125 18.16015625 C1.62452067 15.04658011 -7.31420213 17.08721138 -14.82421875 24.72265625 Z " fill="#2D3194" transform="translate(2250.01171875,837.83984375)"/>
<path d="M0 0 C3.86736527 3.67689546 6.4449432 7.5383239 8.82421875 12.296875 C9.36046875 13.34875 9.89671875 14.400625 10.44921875 15.484375 C16.18223985 29.55063988 15.38619548 48.10223708 9.72265625 62 C8.5487165 64.22669863 7.28737492 66.25012378 5.82421875 68.296875 C5.38207031 68.91949219 4.93992187 69.54210937 4.484375 70.18359375 C-1.42191695 77.72597765 -9.68071469 82.89234804 -19.17578125 84.296875 C-32.68685596 85.39357244 -45.0855264 85.01064666 -56.17578125 76.296875 C-64.33831181 69.15466076 -70.58800174 58.74063173 -71.3527832 47.75415039 C-71.74475522 29.46264364 -71.80158668 14.4750377 -58.44921875 0.48828125 C-42.56453407 -14.0545465 -16.53354554 -12.94187766 0 0 Z M-46.17578125 14.296875 C-53.27746032 24.98951609 -53.45151189 36.94541827 -51.75 49.41796875 C-49.95589877 56.47329934 -46.09056049 61.91253798 -39.84765625 65.71484375 C-32.60856215 69.04983521 -26.43816516 68.71766964 -18.98828125 66.234375 C-11.08653545 60.79095012 -7.30159457 54.02828827 -5.48828125 44.796875 C-4.51643419 33.91218792 -4.93548834 23.04887742 -12.17578125 14.296875 C-16.07518489 10.2743323 -20.19021571 7.63594365 -25.82421875 6.99609375 C-34.06503316 6.96067478 -40.12770761 8.24880136 -46.17578125 14.296875 Z " fill="#2D3194" transform="translate(4035.17578125,847.703125)"/>
<path d="M0 0 C52.89075121 0 52.89075121 0 62.87109375 9.66796875 C65.63992186 12.70097863 67.29685817 15.25308797 69 19 C69.53625 20.175625 70.0725 21.35125 70.625 22.5625 C76.30356755 38.54316824 75.43966117 57.91311579 68.46875 73.2734375 C64.20644225 81.18591305 58.51957627 86.05749575 50 89 C33.64391956 92.27121609 16.67999467 91 0 91 C0 60.97 0 30.94 0 0 Z M18 16 C18 35.47 18 54.94 18 75 C33.73509873 76.09326948 33.73509873 76.09326948 47.9375 70.75 C55.42458042 60.7672261 55.62326731 48.52394432 54.53515625 36.4921875 C53.57167626 30.20495313 51.97460838 24.42871524 47.1875 20 C37.74505898 14.07533112 29.54172819 16 18 16 Z " fill="#2D3194" transform="translate(2666,840)"/>
<path d="M0 0 C5.39984404 5.34972947 8.36542814 10.78942939 8.87109375 18.54296875 C8.68359375 20.66796875 8.68359375 20.66796875 7.68359375 21.66796875 C6.34091962 21.75428749 4.99385053 21.77503348 3.6484375 21.765625 C2.83955078 21.76240234 2.03066406 21.75917969 1.19726562 21.75585938 C0.34712891 21.74748047 -0.50300781 21.73910156 -1.37890625 21.73046875 C-2.23291016 21.72595703 -3.08691406 21.72144531 -3.96679688 21.71679688 C-6.08336288 21.70497248 -8.1998931 21.68703644 -10.31640625 21.66796875 C-10.50074219 21.05308594 -10.68507813 20.43820312 -10.875 19.8046875 C-12.61390843 14.9111894 -12.61390843 14.9111894 -16.234375 11.3671875 C-23.27901909 8.73635581 -30.20760897 9.78096535 -37.31640625 11.66796875 C-37.50203125 12.92609375 -37.68765625 14.18421875 -37.87890625 15.48046875 C-37.98332031 16.18816406 -38.08773438 16.89585937 -38.1953125 17.625 C-38.45545424 19.87050295 -38.45545424 19.87050295 -37.31640625 22.66796875 C-35.55867681 23.59661545 -35.55867681 23.59661545 -33.375 24.17578125 C-32.15272705 24.54751465 -32.15272705 24.54751465 -30.90576172 24.92675781 C-30.05127441 25.17135742 -29.19678711 25.41595703 -28.31640625 25.66796875 C-27.50703613 25.90483398 -26.69766602 26.14169922 -25.86376953 26.38574219 C-24.21715101 26.86426916 -22.56941993 27.3389827 -20.9206543 27.81005859 C-7.97191033 31.54381418 2.93895446 34.74540997 10.05859375 47.04296875 C12.35626255 56.69317773 12.35916722 65.73149692 7.12109375 74.41796875 C2.19791405 81.20235053 -4.20037424 84.87527092 -12.31640625 86.66796875 C-15.92504242 86.96615285 -19.50944972 86.992805 -23.12890625 86.98046875 C-24.52979492 87.00463867 -24.52979492 87.00463867 -25.95898438 87.02929688 C-35.2012368 87.03571065 -44.50472633 85.36278161 -51.31640625 78.66796875 C-57.27236967 71.57419157 -60.31640625 63.92544081 -60.31640625 54.66796875 C-54.37640625 54.33796875 -48.43640625 54.00796875 -42.31640625 53.66796875 C-41.78015625 55.21484375 -41.24390625 56.76171875 -40.69140625 58.35546875 C-38.68802545 63.37102493 -36.837643 65.74800335 -32.31640625 68.66796875 C-26.65726016 70.48781863 -20.5137439 70.44110607 -14.94140625 68.48046875 C-11.94431855 66.41105105 -10.12382896 64.84903272 -8.31640625 61.66796875 C-7.98547465 58.06766686 -7.98547465 58.06766686 -9.31640625 54.66796875 C-14.40411449 50.36944297 -20.23841718 48.98552878 -26.56640625 47.23046875 C-39.3177213 43.68843679 -49.35953414 40.2598804 -56.19140625 28.41796875 C-58.52164477 20.65050702 -58.04927672 13.36330511 -54.70703125 5.9609375 C-50.71635351 -0.61919687 -44.66840569 -4.46034097 -37.31640625 -6.33203125 C-24.88677634 -8.96137604 -10.08492617 -8.4914659 0 0 Z " fill="#2D3194" transform="translate(1810.31640625,845.33203125)"/>
<path d="M0 0 C6.09984483 6.23847766 8.25651125 12.52422823 9 21 C5.69005287 22.65497356 2.00877 22.10084335 -1.625 22.0625 C-2.42679688 22.05798828 -3.22859375 22.05347656 -4.0546875 22.04882812 C-6.03649006 22.03703168 -8.01825433 22.01909605 -10 22 C-10.18433594 21.38511719 -10.36867187 20.77023437 -10.55859375 20.13671875 C-12.29750218 15.24322065 -12.29750218 15.24322065 -15.91796875 11.69921875 C-22.71140337 9.16220157 -29.38523281 9.69868381 -36.125 12.125 C-38.39881486 13.99577052 -38.39881486 13.99577052 -38.3125 17.6875 C-38.209375 18.780625 -38.10625 19.87375 -38 21 C-32.13388371 24.75168167 -26.23819182 26.61964436 -19.5625 28.5 C2.44691186 34.72344893 2.44691186 34.72344893 8.3125 44.5625 C11.86507084 51.79921838 12.27899816 60.08281536 10.24609375 67.8984375 C7.2890894 75.62143709 3.73922486 79.90315614 -3.48828125 83.88671875 C-10.13331397 86.83202874 -16.16173748 87.33816677 -23.3125 87.3125 C-24.19873047 87.32861328 -25.08496094 87.34472656 -25.99804688 87.36132812 C-35.96345449 87.36859684 -44.74597997 85.0980196 -52 78 C-57.68093826 71.62343664 -59.88822849 64.39449952 -61 56 C-57.99589876 52.99589876 -49.94787723 53.9375 -45.9375 53.9375 C-43.9884375 53.9684375 -43.9884375 53.9684375 -42 54 C-41.35309078 55.6037331 -40.70751236 57.20800306 -40.0625 58.8125 C-39.70285156 59.70582031 -39.34320313 60.59914063 -38.97265625 61.51953125 C-38.26386514 63.3270909 -37.6139753 65.15807409 -37 67 C-34.62374655 68.18391223 -34.62374655 68.18391223 -32 69 C-30.515 69.495 -30.515 69.495 -29 70 C-22.61125352 70.58079513 -17.60318929 70.20182245 -12 67 C-9.65190862 64.5736389 -8.30800109 62.38801201 -8 59 C-8.29801073 56.37470438 -8.29801073 56.37470438 -10 54 C-15.44952339 50.44083082 -21.66678266 48.77352367 -27.875 47.0625 C-38.89796742 43.8567333 -48.33853433 40.9921985 -55 31 C-58.22673325 24.55736147 -58.12617048 16.46191594 -56.3828125 9.5546875 C-53.44240952 2.91926485 -47.62036028 -2.18887946 -40.9375 -4.875 C-27.44617593 -9.12855092 -11.76894524 -8.23826167 0 0 Z " fill="#2D3194" transform="translate(4219,845)"/>
<path d="M0 0 C21.78 0 43.56 0 66 0 C66 5.28 66 10.56 66 16 C50.49 16 34.98 16 19 16 C19 22.27 19 28.54 19 35 C33.19 35 47.38 35 62 35 C62 40.28 62 45.56 62 51 C47.81 51 33.62 51 19 51 C19 58.92 19 66.84 19 75 C34.84 75 50.68 75 67 75 C67 80.28 67 85.56 67 91 C44.89 91 22.78 91 0 91 C0 60.97 0 30.94 0 0 Z " fill="#2D3194" transform="translate(2855,840)"/>
<path d="M0 0 C21.45 0 42.9 0 65 0 C65 5.28 65 10.56 65 16 C49.49 16 33.98 16 18 16 C18 22.27 18 28.54 18 35 C32.52 35 47.04 35 62 35 C62 40.28 62 45.56 62 51 C47.48 51 32.96 51 18 51 C18 58.92 18 66.84 18 75 C34.17 75 50.34 75 67 75 C67 80.28 67 85.56 67 91 C44.89 91 22.78 91 0 91 C0 60.97 0 30.94 0 0 Z " fill="#2D3194" transform="translate(1572,840)"/>
<path d="M0 0 C6.6 0 13.2 0 20 0 C22.57956606 5.80402364 25.07098259 11.56468104 27.36328125 17.4765625 C27.67246994 18.26899857 27.98165863 19.06143463 28.30021667 19.87788391 C29.30662042 22.4593636 30.30975685 25.0420964 31.3125 27.625 C32.01426605 29.42913996 32.71608985 31.23325746 33.41796875 33.03735352 C35.24526998 37.73713869 37.06883997 42.43836267 38.89117432 47.14007568 C39.99728949 49.99300896 41.10471424 52.84543101 42.21240234 55.69775391 C43.97801175 60.24559315 45.73957985 64.7949776 47.49789429 69.34564209 C48.16499006 71.07102637 48.83313907 72.7960038 49.50234985 74.52056885 C50.43192771 76.91740985 51.35718726 79.31587209 52.28125 81.71484375 C52.55857468 82.42747879 52.83589935 83.14011383 53.12162781 83.87434387 C55 88.77133201 55 88.77133201 55 91 C48.4 91 41.8 91 35 91 C32.20805448 84.35969714 29.53084415 77.74891774 27 71 C15.78 70.67 4.56 70.34 -7 70 C-7.66 72.97 -8.32 75.94 -9 79 C-10.50354811 83.08691713 -12.25525319 87.0054481 -14 91 C-20.27 91 -26.54 91 -33 91 C-32.26811076 86.60866454 -31.54633061 83.3728688 -30.02563477 79.31542969 C-29.61753067 78.21857849 -29.20942657 77.12172729 -28.78895569 75.99163818 C-28.34426437 74.81361633 -27.89957306 73.63559448 -27.44140625 72.421875 C-26.97310573 71.17010697 -26.50525514 69.91817054 -26.03782654 68.66607666 C-24.8020585 65.35998818 -23.55958548 62.05645739 -22.31585693 58.75335693 C-21.33187864 56.13672244 -20.35269469 53.51830816 -19.37378883 50.89977264 C-13.01607209 33.8942981 -6.54707239 16.93353828 0 0 Z M10 24 C6.92064292 30.54616284 4.48051912 37.18579425 2.25 44.0625 C1.1775 47.341875 0.105 50.62125 -1 54 C6.26 54 13.52 54 21 54 C18.70770675 46.2721499 18.70770675 46.2721499 16.17578125 38.6484375 C15.71655273 37.34326172 15.71655273 37.34326172 15.24804688 36.01171875 C14.78495117 34.70654297 14.78495117 34.70654297 14.3125 33.375 C13.99216797 32.46621094 13.67183594 31.55742188 13.34179688 30.62109375 C12.56326686 28.41332207 11.78264756 26.20631463 11 24 C10.67 24 10.34 24 10 24 Z " fill="#2D3194" transform="translate(3125,840)"/>
<path d="M0 0 C5.38908187 4.52416749 8.73475147 9.94555269 10.8984375 16.59375 C10.8984375 17.91375 10.8984375 19.23375 10.8984375 20.59375 C4.9584375 21.91375 -0.9815625 23.23375 -7.1015625 24.59375 C-8.4215625 21.95375 -9.7415625 19.31375 -11.1015625 16.59375 C-16.45197898 11.46171786 -20.25244517 10.22164481 -27.46484375 10.31640625 C-31.60409146 10.75179379 -34.78259322 12.09684024 -38.1015625 14.59375 C-45.84688109 24.17348615 -45.87531882 35.78966754 -45.1015625 47.59375 C-44.09520758 55.15846874 -42.32904864 61.76110804 -36.1015625 66.59375 C-31.27260099 69.51761488 -26.73902976 70.0646999 -21.20703125 69.16015625 C-16.39137882 67.86466534 -13.38297309 65.40994995 -10.8515625 61.21875 C-9.24393977 58.11737782 -8.08368357 54.94933033 -7.1015625 51.59375 C-0.424273 52.20077632 5.59971746 54.37006394 11.8984375 56.59375 C9.44510316 66.70837403 5.70093756 75.44442139 -3.15234375 81.4140625 C-13.40688199 87.6202159 -25.29213451 87.99471025 -37 86.1328125 C-46.7203726 83.23375401 -54.83657297 75.36510055 -59.96875 66.84375 C-61.93544112 62.93749453 -63.07816417 58.83255524 -64.1015625 54.59375 C-64.2871875 53.85640625 -64.4728125 53.1190625 -64.6640625 52.359375 C-67.30738888 35.64977607 -64.52674767 19.31901747 -54.8515625 5.34375 C-40.38109055 -9.12672195 -16.90252388 -12.44806812 0 0 Z " fill="#2D3194" transform="translate(3347.1015625,845.40625)"/>
<path d="M0 0 C6.6 0 13.2 0 20 0 C35.34042553 44.82978723 35.34042553 44.82978723 41 62 C43.995934 54.82424938 46.52042224 47.57089948 48.85546875 40.15625 C49.20257401 39.06534058 49.54967926 37.97443115 49.90730286 36.85046387 C51.00419736 33.40140754 52.09615642 29.95081634 53.1875 26.5 C54.29028529 23.02085774 55.39413357 19.54206028 56.49983215 16.06384277 C57.18503468 13.90761427 57.86843108 11.75081083 58.54985046 9.59338379 C58.8571962 8.62477417 59.16454193 7.65616455 59.48120117 6.65820312 C59.75115402 5.80456177 60.02110687 4.95092041 60.29924011 4.07141113 C61 2 61 2 62 0 C68.6 0 75.2 0 82 0 C80.01213174 6.73940415 77.89815944 13.41308282 75.62890625 20.0625 C75.31009995 21.00073105 74.99129364 21.9389621 74.66282654 22.90562439 C73.6315206 25.93781521 72.59722353 28.96897387 71.5625 32 C71.21050537 33.03303253 70.85851074 34.06606506 70.49584961 35.13040161 C64.13235172 53.80196862 57.62424249 72.41950166 51 91 C44.4 91 37.8 91 31 91 C27.57285067 82.69417331 24.61463597 74.25534338 21.71875 65.75390625 C21.21863846 64.29230684 20.71826721 62.83079627 20.21765137 61.36936951 C18.90842931 57.54561873 17.60208857 53.72089056 16.29656982 49.89587402 C14.20863381 43.77973015 12.11668783 37.66495805 10.02394104 31.55045891 C9.30066002 29.43565916 8.57887481 27.32035366 7.8572998 25.20497131 C5.56109582 18.48561675 3.22287544 11.79286541 0.68933105 5.15855408 C0 3 0 3 0 0 Z " fill="#2D3194" transform="translate(3776,840)"/>
<path d="M0 0 C23.1 0 46.2 0 70 0 C70 5.28 70 10.56 70 16 C61.42 16 52.84 16 44 16 C44 40.75 44 65.5 44 91 C37.73 91 31.46 91 25 91 C25 66.25 25 41.5 25 16 C16.75 16 8.5 16 0 16 C0 10.72 0 5.44 0 0 Z " fill="#2D3194" transform="translate(1897,840)"/>
<path d="M0 0 C23.1 0 46.2 0 70 0 C70 5.28 70 10.56 70 16 C61.42 16 52.84 16 44 16 C44 40.75 44 65.5 44 91 C38.06 91 32.12 91 26 91 C26 66.25 26 41.5 26 16 C17.42 16 8.84 16 0 16 C0 10.72 0 5.44 0 0 Z " fill="#2D3194" transform="translate(3468,840)"/>
<path d="M0 0 C6.27 0 12.54 0 19 0 C19 30.03 19 60.06 19 91 C12.73 91 6.46 91 0 91 C0 60.97 0 30.94 0 0 Z " fill="#2D3194" transform="translate(3649,840)"/>
<path d="M0 0 C5.94 0 11.88 0 18 0 C18 30.03 18 60.06 18 91 C12.06 91 6.12 91 0 91 C0 60.97 0 30.94 0 0 Z " fill="#2D3194" transform="translate(2078,840)"/>
<path d="M0 0 C2.6604151 3.2712657 4.4864639 6.7890481 6.3125 10.5625 C7.02720605 12.00722357 7.74347203 13.45117605 8.4609375 14.89453125 C8.86151367 15.70100098 9.26208984 16.5074707 9.67480469 17.33837891 C19.02817794 36.12439129 29.04379979 54.19778876 40.13183594 71.99951172 C41.7370766 74.5777145 43.32949039 77.16297794 44.9140625 79.75390625 C60.08433457 104.46511969 77.54239008 127.66857072 96 150 C95.67 150.66 95.34 151.32 95 152 C88.6392609 145.19370188 82.8612585 138.08673801 77.25732422 130.65576172 C75.24028658 127.99953856 73.17671728 125.37948087 71.125 122.75 C60.29320215 108.70830692 50.52581828 93.94785046 41 79 C40.29359375 77.89527344 39.5871875 76.79054688 38.859375 75.65234375 C25.6897577 54.65289095 13.92226195 32.61393486 3.25 10.25 C2.91444092 9.55277832 2.57888184 8.85555664 2.2331543 8.13720703 C0.87583856 5.23657167 0 3.24345727 0 0 Z " fill="#2747B3" transform="translate(54,878)"/>
<path d="M0 0 C6.6 0 13.2 0 20 0 C18.03182785 3.9363443 16.04598691 6.3106043 13.0625 9.5 C9.54182476 13.19350038 9.54182476 13.19350038 6.6015625 17.328125 C5 19 5 19 1.86328125 19.390625 C-1.42447917 19.26041667 -4.71223958 19.13020833 -8 19 C-5.36 12.73 -2.72 6.46 0 0 Z " fill="#2D3194" transform="translate(2249,816)"/>
<path d="M0 0 C-1.44823402 33.64365773 -3.32387656 67.26090201 -5.26172805 100.87914479 C-5.67234932 108.00435646 -6.08022376 115.12972472 -6.48795056 122.25510252 C-7.32240457 136.83690168 -8.16004584 151.41851659 -9 166 C-9.33 166 -9.66 166 -10 166 C-10.3444567 149.29547322 -9.34336178 132.66394561 -8.38456726 115.99572587 C-8.1564986 112.01085019 -7.93455881 108.02563279 -7.71191406 104.04045105 C-7.29116553 96.5255719 -6.86506269 89.01100675 -6.43693924 81.49654454 C-5.94904062 72.92818514 -5.46725826 64.35948507 -4.98593903 55.79075396 C-3.9973359 38.1934537 -3.00121637 20.59658703 -2 3 C-3.65 3 -5.3 3 -7 3 C-1 0 -1 0 0 0 Z " fill="#294484" transform="translate(1018,612)"/>
<path d="M0 0 C2.66020485 3.27100717 4.48783672 6.78851002 6.3125 10.5625 C10.78963299 19.67497631 15.47706703 28.67598223 20.16333008 37.68188477 C20.74493896 38.80006592 21.32654785 39.91824707 21.92578125 41.0703125 C22.44567627 42.06820801 22.96557129 43.06610352 23.5012207 44.09423828 C25.02609535 47.05059242 26.5185772 50.02166819 28 53 C24.44455759 51.81485253 24.26359289 51.2152502 22.5390625 48.0390625 C22.07338867 47.18739502 21.60771484 46.33572754 21.12792969 45.45825195 C20.38397949 44.05579224 20.38397949 44.05579224 19.625 42.625 C19.1084082 41.66360107 18.59181641 40.70220215 18.05957031 39.71166992 C13.78291642 31.66379651 9.72744327 23.51121979 5.75 15.3125 C5.17717285 14.13703613 4.6043457 12.96157227 4.01416016 11.75048828 C3.48870605 10.65333496 2.96325195 9.55618164 2.421875 8.42578125 C1.95362305 7.45036377 1.48537109 6.47494629 1.00292969 5.4699707 C0 3 0 3 0 0 Z " fill="#3350AC" transform="translate(54,878)"/>
<path d="M0 0 C3.90050282 1.30016761 4.31143857 2.76003913 6.25 6.3125 C6.79140625 7.27800781 7.3328125 8.24351562 7.890625 9.23828125 C9 12 9 12 8 16 C5.36 10.72 2.72 5.44 0 0 Z " fill="#244AB7" transform="translate(64,901)"/>
</svg>
